<svg width="22" height="18" viewBox="0 0 22 18" fill="none" xmlns="http://www.w3.org/2000/svg">
<path d="M21.4 8.90002L19.6 6.80002L17.3 1.80002H13.6V0.900024H0V2.80002H11.7V8.30002H18.4L19.5 9.60003V13H17.9C17.5 11.9 16.4 11.1 15.1 11.1C13.8 11.1 12.7 11.9 12.3 13H8.1C7.7 11.9 6.6 11.1 5.3 11.1C4 11.1 3 11.9 2.5 13H0V15H2.5C2.9 16.2 4 17.1 5.4 17.1C6.8 17.1 7.9 16.2 8.3 15H12.3C12.7 16.2 13.8 17.1 15.2 17.1C16.6 17.1 17.7 16.2 18.1 15H21.6V8.90002H21.4ZM5.3 15.2C4.7 15.2 4.2 14.7 4.2 14.1C4.2 13.5 4.7 13 5.3 13C5.9 13 6.4 13.5 6.4 14.1C6.4 14.7 5.9 15.2 5.3 15.2ZM15.1 15.2C14.5 15.2 14 14.7 14 14.1C14 13.5 14.5 13 15.1 13C15.7 13 16.2 13.5 16.2 14.1C16.2 14.7 15.7 15.2 15.1 15.2ZM13.6 3.70002H16L17.2 6.30002H13.5V3.70002H13.6Z" fill="black"/>
</svg>
