<svg width="66" height="66" viewBox="0 0 66 66" fill="none" xmlns="http://www.w3.org/2000/svg">
<path d="M63.4757 45.8425H51.541L55.382 55.5827L45.6036 51.3355L45.6009 62.2234L36.812 53.4346L32.453 63.4665L28.6638 53.8626L21.3797 61.1466V50.1824L9.83754 54.7349L14.1856 44.7248H3.54304L10.9661 37.3017L0.0400391 32.5583L10.5 28.4338L2.56711 20.5009H14.5127L10.6717 10.7661L20.4529 15.0133V4.12814L29.2226 12.8979L33.5898 2.84961L37.3818 12.4645L44.6767 5.17222V16.1556L56.1916 11.6139L51.8463 21.6186H62.4861L55.0685 29.0362L66 33.7851L55.5456 37.9096L63.4757 45.8425Z" fill="#F54E80"/>
<path d="M38.2 21.6H42.456L28.056 44H23.8L38.2 21.6ZM20.6 26.944C20.6 25.3013 21.0907 24 22.072 23.04C23.0533 22.08 24.3547 21.6 25.976 21.6C27.576 21.6 28.856 22.08 29.816 23.04C30.7973 24 31.288 25.3013 31.288 26.944C31.288 28.5867 30.7973 29.888 29.816 30.848C28.856 31.808 27.576 32.288 25.976 32.288C24.3547 32.288 23.0533 31.808 22.072 30.848C21.0907 29.888 20.6 28.5867 20.6 26.944ZM23.736 26.944C23.736 27.904 23.9387 28.608 24.344 29.056C24.7707 29.4827 25.3147 29.696 25.976 29.696C26.616 29.696 27.1387 29.4827 27.544 29.056C27.9707 28.608 28.184 27.904 28.184 26.944C28.184 26.0053 27.9707 25.312 27.544 24.864C27.1387 24.416 26.616 24.192 25.976 24.192C25.3147 24.192 24.7707 24.416 24.344 24.864C23.9387 25.312 23.736 26.0053 23.736 26.944ZM34.84 38.624C34.84 37.0027 35.3307 35.712 36.312 34.752C37.2933 33.792 38.584 33.312 40.184 33.312C41.784 33.312 43.0747 33.792 44.056 34.752C45.0373 35.712 45.528 37.0027 45.528 38.624C45.528 40.2667 45.0373 41.5787 44.056 42.56C43.0747 43.52 41.784 44 40.184 44C38.5627 44 37.2613 43.52 36.28 42.56C35.32 41.5787 34.84 40.2667 34.84 38.624ZM37.944 38.624C37.944 39.6053 38.1467 40.32 38.552 40.768C38.9787 41.1947 39.5227 41.408 40.184 41.408C40.8453 41.408 41.3787 41.1947 41.784 40.768C42.1893 40.32 42.392 39.6053 42.392 38.624C42.392 37.6853 42.1787 37.0027 41.752 36.576C41.3467 36.128 40.824 35.904 40.184 35.904C39.5227 35.904 38.9787 36.128 38.552 36.576C38.1467 37.0027 37.944 37.6853 37.944 38.624Z" fill="white"/>
</svg>
