<svg width="215" height="33" viewBox="0 0 215 33" fill="none" xmlns="http://www.w3.org/2000/svg">
<path d="M108.499 0V4.76079H113.696V0H108.499ZM108.499 6.80231V23.8067H113.696V6.80231H108.499Z" fill="white"/>
<path d="M77.0156 6.25659C71.6147 6.25659 67.9829 9.72524 67.9829 15.3015C67.9829 20.8778 71.6174 24.3465 77.0156 24.3465C82.4137 24.3465 86.0482 20.8778 86.0482 15.3015C86.0482 9.72524 82.4137 6.25659 77.0156 6.25659ZM77.0156 19.9604C75.0456 19.9604 73.2462 18.7702 73.2462 15.3015C73.2462 11.8329 75.0456 10.6096 77.0156 10.6096C78.9855 10.6096 80.7849 11.8687 80.7849 15.3015C80.7849 18.7344 78.9855 19.9604 77.0156 19.9604Z" fill="white"/>
<path d="M99.296 6.29262C96.2393 6.29262 94.1675 8.43607 93.5897 10.4748H93.3861V0H88.1888V23.8067H93.3861L93.3174 20.203H93.521C93.9969 22.1426 95.6615 24.3522 99.0567 24.3522C103.473 24.3522 106.562 20.6797 106.562 15.4423C106.562 10.2048 103.709 6.29537 99.2933 6.29537L99.296 6.29262ZM97.2243 19.9964C95.1525 19.9964 93.2513 18.7043 93.2513 15.3706C93.2513 12.037 95.1525 10.6429 97.2243 10.6429C99.296 10.6429 101.233 11.9681 101.233 15.3706C101.233 18.7732 99.3648 19.9964 97.2243 19.9964Z" fill="white"/>
<path d="M122.6 19.5198C121.513 19.5198 121.139 18.9081 121.139 17.8199V0H116.043V18.7043C116.043 22.1399 117.81 23.8067 121.241 23.8067H123.585V19.5225H122.6V19.5198Z" fill="white"/>
<path d="M142.602 14.6238C142.602 8.97862 138.8 6.25659 133.839 6.25659C128.609 6.25659 124.806 9.55443 124.806 15.3015C124.806 21.5942 129.255 24.3465 133.671 24.3465C138.087 24.3465 141.719 22.4069 142.398 18.2247H137.372C136.896 19.7896 135.402 20.3323 133.941 20.3323C131.971 20.3323 129.83 19.3791 129.764 16.4559H142.432C142.533 16.0151 142.602 15.4365 142.602 14.6183V14.6238ZM137.372 13.4666H129.866C129.968 11.359 131.564 9.998 133.704 9.998C135.845 9.998 137.441 11.2901 137.372 13.4666Z" fill="white"/>
<path d="M153.495 19.9634C151.525 19.9634 149.725 18.7732 149.725 15.3046C149.725 11.8359 151.525 10.6127 153.495 10.6127C155.09 10.6127 156.483 11.2601 156.857 13.6047H162.222C161.883 8.46922 158.282 6.25964 153.495 6.25964C148.094 6.25964 144.462 9.7283 144.462 15.3046C144.462 20.8809 148.096 24.3495 153.495 24.3495C158.282 24.3495 161.883 22.14 162.222 17.0045H156.857C156.483 19.3518 155.09 19.9634 153.495 19.9634Z" fill="white"/>
<path d="M181.6 19.6576C180.615 19.6576 180.309 19.3187 180.309 18.3985V12.7203C180.309 8.81085 177.728 6.25964 172.465 6.25964C166.896 6.25964 163.941 8.91279 163.941 12.4503H169.342C169.342 10.9543 170.564 10.2738 172.297 10.2738C174.267 10.2738 175.115 11.4971 175.115 13.1997V13.7425L170.088 14.1171C166.453 14.3899 164.145 16.0209 164.145 19.2857C164.145 22.2446 165.98 24.2173 169.51 24.2173C173.04 24.2173 174.773 22.2446 175.249 20.4428H175.453V20.5448C175.453 22.7213 176.914 23.8095 179.731 23.8095H182.381V19.6604H181.6V19.6576ZM171.785 20.6109C169.917 20.6109 169.477 19.7265 169.477 18.8091C169.477 17.8916 170.019 17.1422 172.193 16.9384L175.181 16.6656C175.181 19.3518 173.618 20.6109 171.785 20.6109Z" fill="white"/>
<path d="M194.339 6.49646C190.908 6.49646 190.162 9.01185 189.551 11.9047H189.381L189.515 6.80227H184.318V23.8067H189.515V17.6849C189.515 12.1416 191.554 11.8689 194.339 11.8689H195.833V6.63146C195.392 6.56258 194.916 6.49646 194.339 6.49646Z" fill="white"/>
<path d="M214.77 14.6238C214.77 8.97862 210.968 6.25659 206.007 6.25659C200.777 6.25659 196.974 9.55443 196.974 15.3015C196.974 21.5942 201.423 24.3465 205.839 24.3465C210.255 24.3465 213.887 22.4069 214.566 18.2247H209.54C209.064 19.7896 207.57 20.3323 206.109 20.3323C204.139 20.3323 201.998 19.3791 201.932 16.4559H214.599C214.701 16.0151 214.77 15.4365 214.77 14.6183V14.6238ZM209.54 13.4666H202.034C202.136 11.359 203.732 9.998 205.872 9.998C208.013 9.998 209.608 11.2901 209.54 13.4666Z" fill="white"/>
<path d="M66.3487 23.8037H61.9438L61.4651 17.186L61.2587 14.3318V14.2629H61.0551L61.0331 14.3483L60.78 15.3649L58.6807 23.801H53.9539L51.8546 15.3622L51.6015 14.3483L51.5795 14.2629H51.3759V14.329L51.1695 17.1833L50.6908 23.801H46.2859L46.9242 15.8057L47.6863 6.2511H53.8383L53.9511 6.70293L56.1907 15.7065L56.2127 15.792H56.4163L56.4384 15.7065L58.6807 6.6864L58.788 6.2511H64.94L65.7021 15.8057L66.3404 23.801L66.3487 23.8037Z" fill="white"/>
<path d="M34.7277 23.7877C34.4966 24.0908 34.26 24.3883 34.0124 24.6776C33.9518 24.7492 33.8913 24.8209 33.828 24.8925C33.773 24.9531 33.7207 25.0165 33.6657 25.0771C33.4538 25.314 33.2365 25.5482 33.0136 25.7741C32.9641 25.8265 32.9146 25.876 32.8623 25.9256C32.8128 25.9752 32.7605 26.0276 32.711 26.0772C32.4826 26.3003 32.2515 26.518 32.0149 26.7301C31.9544 26.7852 31.8911 26.8403 31.8305 26.8927C31.759 26.9533 31.6875 27.0167 31.6159 27.0773C31.3271 27.3225 31.0299 27.5622 30.7273 27.7936C30.4934 27.9727 30.254 28.1462 30.0119 28.3143C29.8606 28.419 29.7093 28.5237 29.5552 28.6229C29.4094 28.7193 29.2608 28.8157 29.1095 28.9094C29.0187 28.9673 28.9251 29.0251 28.8316 29.0802C28.661 29.1849 28.4877 29.2841 28.3116 29.3833C28.2098 29.4411 28.1107 29.4962 28.0089 29.5513C27.6925 29.7221 27.3734 29.8875 27.0487 30.0417C27.0294 30.05 27.0129 30.0583 26.9937 30.0665C26.669 30.2208 26.3416 30.3668 26.0087 30.5046C25.8711 30.5597 25.7336 30.6148 25.596 30.6699C25.2136 30.8187 24.8229 30.9564 24.4294 31.0832C24.3221 31.1162 24.2148 31.152 24.1075 31.1823C24.0745 31.1934 24.0415 31.2016 24.0085 31.2127C23.9479 31.2319 23.8847 31.2485 23.8241 31.2678C23.3949 31.3917 22.9602 31.5019 22.52 31.5984C22.3494 31.6369 22.1788 31.67 22.0055 31.7058C21.7579 31.7526 21.5075 31.7967 21.2544 31.8353C21.1086 31.8573 20.9627 31.8794 20.8169 31.8987C20.5473 31.9345 20.2749 31.9648 20.0025 31.9923C19.6806 32.0226 19.3532 32.0474 19.0258 32.0612C19.0093 32.0612 18.9955 32.0612 18.979 32.0612C18.6544 32.075 18.3297 32.0833 18.0023 32.0833C17.6749 32.0833 17.3475 32.075 17.0256 32.0612C17.0091 32.0612 16.9953 32.0612 16.9788 32.0612C16.6514 32.0447 16.3267 32.0226 16.0021 31.9923C15.7297 31.9675 15.4573 31.9345 15.1877 31.8987C15.0418 31.8794 14.896 31.8573 14.7502 31.8353C14.4998 31.7967 14.2495 31.7526 13.9991 31.7058C13.845 31.6755 13.6937 31.6452 13.5424 31.6121C13.5231 31.6066 13.5038 31.6039 13.4846 31.5984C13.0444 31.5019 12.6096 31.3917 12.1804 31.2678C12.1199 31.2512 12.0566 31.2319 11.9961 31.2127C11.9631 31.2016 11.9301 31.1934 11.897 31.1823C11.7897 31.1493 11.6824 31.1162 11.5751 31.0832C11.1817 30.9564 10.791 30.8187 10.4086 30.6699C10.271 30.6148 10.1334 30.5597 9.99587 30.5046C9.66296 30.3668 9.3328 30.2208 9.01089 30.0665C8.99163 30.0583 8.97512 30.05 8.95586 30.0417C8.6312 29.8875 8.30929 29.7221 7.99564 29.5513C7.89384 29.4962 7.79204 29.4411 7.69299 29.3833C7.51691 29.2841 7.34357 29.1822 7.17299 29.0802C6.92812 28.9342 6.68875 28.7799 6.44939 28.6229C6.29531 28.5209 6.14399 28.419 5.99266 28.3143C5.75054 28.1462 5.51118 27.9699 5.27731 27.7936C4.97466 27.5622 4.68027 27.3252 4.38863 27.0773C4.31709 27.0167 4.24556 26.9533 4.17402 26.8927C4.11349 26.8376 4.05021 26.7852 3.98968 26.7301C3.75307 26.518 3.5192 26.3003 3.29359 26.0772C3.24132 26.0276 3.19179 25.978 3.14227 25.9256C3.09274 25.876 3.04047 25.8237 2.99094 25.7741C2.76808 25.5454 2.55073 25.314 2.33887 25.0771C2.28385 25.0165 2.22882 24.9531 2.17655 24.8925C2.11326 24.8209 2.05273 24.7492 1.99221 24.6776C1.74734 24.3883 1.50797 24.0908 1.27686 23.7877L3.99243 21.0684L5.33234 19.7267C5.54144 20.0325 5.76155 20.3301 5.99266 20.6193C6.05869 20.702 6.12473 20.7847 6.19351 20.8673C6.24854 20.9362 6.30632 21.0023 6.36409 21.0684C6.61447 21.3605 6.87584 21.6415 7.14823 21.9142C7.42061 22.187 7.70125 22.4487 7.99289 22.6994C8.05892 22.7573 8.12771 22.8124 8.19374 22.8703C8.27628 22.9391 8.35882 23.0053 8.44136 23.0714C8.73025 23.3028 9.0274 23.5232 9.3328 23.7326C9.55015 23.8814 9.77026 24.0246 9.99312 24.1624C10.183 24.2781 10.3756 24.3911 10.5709 24.4985C10.9451 24.7079 11.3303 24.898 11.7237 25.0771C11.787 25.1046 11.8503 25.1322 11.9136 25.1597C11.9411 25.1707 11.9686 25.1845 11.9961 25.1955C12.0291 25.2093 12.0649 25.2231 12.0979 25.2396C12.1309 25.2534 12.1667 25.2672 12.1997 25.281C12.2355 25.2947 12.2712 25.3085 12.307 25.3223C12.318 25.3278 12.3318 25.3305 12.3428 25.3361C12.3868 25.3526 12.4308 25.3719 12.4748 25.3884C12.4913 25.3939 12.5078 25.4022 12.5244 25.4077C12.5601 25.4215 12.5959 25.4352 12.6317 25.449C12.6674 25.4628 12.7032 25.4766 12.739 25.4903C12.7665 25.5014 12.794 25.5096 12.8215 25.5206C12.8545 25.5344 12.8903 25.5454 12.9233 25.5565C12.9701 25.573 13.0196 25.5895 13.0664 25.6061C13.1654 25.6391 13.2672 25.6722 13.3663 25.7052C13.4048 25.7163 13.4406 25.73 13.4791 25.7411C13.4983 25.7466 13.5176 25.7521 13.5369 25.7576C13.5754 25.7686 13.6111 25.7796 13.6497 25.7906C13.6827 25.8017 13.7157 25.8099 13.7487 25.8182C13.757 25.8182 13.768 25.8237 13.7762 25.8265C13.8092 25.8347 13.8423 25.8457 13.878 25.854C13.9165 25.865 13.9551 25.876 13.9936 25.8843C14.0596 25.9008 14.1229 25.9201 14.1889 25.9367C14.2384 25.9504 14.288 25.9615 14.3347 25.9725C14.3815 25.9835 14.4338 25.9973 14.4833 26.0083C14.5163 26.0166 14.5493 26.0248 14.5824 26.0303C14.6484 26.0469 14.7144 26.0606 14.7805 26.0744C14.8382 26.0882 14.8988 26.0992 14.9565 26.1102C14.9868 26.1157 15.0171 26.1213 15.0473 26.1268C15.3582 26.1874 15.6746 26.2397 15.9938 26.281C16.2304 26.3114 16.4698 26.3361 16.7092 26.3582C16.91 26.3747 17.1136 26.3885 17.3172 26.3968C17.5428 26.4078 17.7684 26.4105 17.994 26.4105C18.2224 26.4105 18.448 26.405 18.6709 26.3968C18.8745 26.3885 19.0753 26.3747 19.2789 26.3582C19.5183 26.3389 19.7576 26.3141 19.9943 26.281C20.3134 26.2397 20.6271 26.1874 20.9407 26.1268C20.971 26.1213 21.0013 26.1157 21.0315 26.1075C21.0618 26.102 21.0893 26.0965 21.1196 26.0882C21.1498 26.0827 21.1801 26.0772 21.2104 26.0689C21.2764 26.0551 21.3424 26.0414 21.4085 26.0248C21.557 25.9918 21.7028 25.9559 21.8487 25.9174C21.8982 25.9036 21.9477 25.8926 21.9945 25.8788C22.0385 25.8678 22.0798 25.854 22.1238 25.843C22.2916 25.7962 22.4567 25.7466 22.6218 25.6942C22.8969 25.6061 23.1693 25.5124 23.4389 25.4104C23.4692 25.3994 23.4967 25.3884 23.527 25.3774C23.615 25.3443 23.7031 25.3085 23.7911 25.2727C23.8599 25.2451 23.9287 25.2148 23.9947 25.1873C24.0222 25.1763 24.0497 25.1625 24.0773 25.1515C24.1405 25.1239 24.2038 25.0964 24.2671 25.0688C24.6605 24.8925 25.043 24.6996 25.4172 24.493C25.6125 24.3856 25.8051 24.2726 25.9922 24.1569C26.2151 24.0191 26.4352 23.8759 26.6525 23.7271C26.9579 23.5177 27.2551 23.2973 27.544 23.0659C27.6265 22.9997 27.709 22.9336 27.7916 22.8647C27.8604 22.8096 27.9264 22.7518 27.9924 22.6939C28.2841 22.4432 28.5675 22.1815 28.8371 21.9087C29.1067 21.636 29.3708 21.355 29.6212 21.0629C29.679 20.9968 29.734 20.9307 29.7918 20.8618C29.8606 20.7791 29.9266 20.6965 29.9927 20.6138C30.2238 20.3246 30.4439 20.027 30.653 19.7212L30.9941 20.0628L32.9944 22.0658L33.0962 22.1677L33.9959 23.0686L34.7112 23.7849L34.7277 23.7877Z" fill="white"/>
<path d="M36.0124 11.04L32.0119 15.0459L25.0097 8.0342L18.0076 15.0459L11.0026 8.0342L4.00046 15.0459L0 11.04L11.0026 0.0196533L18.0076 7.03135L25.0097 0.0196533L36.0124 11.04Z" fill="white"/>
</svg>
